<mxfile host="app.diagrams.net" modified="2024-06-10T02:01:19.053Z" agent="Mozilla/5.0 (Windows NT 10.0; Win64; x64) AppleWebKit/537.36 (KHTML, like Gecko) Chrome/125.0.0.0 Safari/537.36" etag="O0UUx77gqwHhrQ3fiE4N" version="24.5.2" type="device">
  <diagram name="Page-1" id="-UskjO6ZrwKaNbNPAjtR">
    <mxGraphModel dx="3685" dy="-1397" grid="1" gridSize="10" guides="1" tooltips="1" connect="1" arrows="1" fold="1" page="1" pageScale="1" pageWidth="850" pageHeight="1100" math="0" shadow="0">
      <root>
        <mxCell id="0" />
        <mxCell id="1" parent="0" />
        <mxCell id="BuUG9W41u-PBjwoir0zU-2" value="Usuario" style="shape=table;startSize=30;container=1;collapsible=1;childLayout=tableLayout;fixedRows=1;rowLines=0;fontStyle=1;align=center;resizeLast=1;html=1;" vertex="1" parent="1">
          <mxGeometry x="-1299.2" y="2240" width="267.76" height="210" as="geometry" />
        </mxCell>
        <mxCell id="BuUG9W41u-PBjwoir0zU-3" value="" style="shape=tableRow;horizontal=0;startSize=0;swimlaneHead=0;swimlaneBody=0;fillColor=none;collapsible=0;dropTarget=0;points=[[0,0.5],[1,0.5]];portConstraint=eastwest;top=0;left=0;right=0;bottom=1;" vertex="1" parent="BuUG9W41u-PBjwoir0zU-2">
          <mxGeometry y="30" width="267.76" height="30" as="geometry" />
        </mxCell>
        <mxCell id="BuUG9W41u-PBjwoir0zU-4" value="PK" style="shape=partialRectangle;connectable=0;fillColor=none;top=0;left=0;bottom=0;right=0;fontStyle=1;overflow=hidden;whiteSpace=wrap;html=1;" vertex="1" parent="BuUG9W41u-PBjwoir0zU-3">
          <mxGeometry width="30" height="30" as="geometry">
            <mxRectangle width="30" height="30" as="alternateBounds" />
          </mxGeometry>
        </mxCell>
        <mxCell id="BuUG9W41u-PBjwoir0zU-5" value="ID_Usuario(INTIdentity)" style="shape=partialRectangle;connectable=0;fillColor=none;top=0;left=0;bottom=0;right=0;align=left;spacingLeft=6;fontStyle=5;overflow=hidden;whiteSpace=wrap;html=1;" vertex="1" parent="BuUG9W41u-PBjwoir0zU-3">
          <mxGeometry x="30" width="237.76" height="30" as="geometry">
            <mxRectangle width="237.76" height="30" as="alternateBounds" />
          </mxGeometry>
        </mxCell>
        <mxCell id="BuUG9W41u-PBjwoir0zU-6" value="" style="shape=tableRow;horizontal=0;startSize=0;swimlaneHead=0;swimlaneBody=0;fillColor=none;collapsible=0;dropTarget=0;points=[[0,0.5],[1,0.5]];portConstraint=eastwest;top=0;left=0;right=0;bottom=0;" vertex="1" parent="BuUG9W41u-PBjwoir0zU-2">
          <mxGeometry y="60" width="267.76" height="30" as="geometry" />
        </mxCell>
        <mxCell id="BuUG9W41u-PBjwoir0zU-7" value="" style="shape=partialRectangle;connectable=0;fillColor=none;top=0;left=0;bottom=0;right=0;editable=1;overflow=hidden;whiteSpace=wrap;html=1;" vertex="1" parent="BuUG9W41u-PBjwoir0zU-6">
          <mxGeometry width="30" height="30" as="geometry">
            <mxRectangle width="30" height="30" as="alternateBounds" />
          </mxGeometry>
        </mxCell>
        <mxCell id="BuUG9W41u-PBjwoir0zU-8" value="&lt;span style=&quot;font-size:11.0pt;line-height:&lt;br/&gt;115%;font-family:&amp;quot;Cambria&amp;quot;,serif;mso-ascii-theme-font:minor-latin;mso-fareast-font-family:&lt;br/&gt;&amp;quot;MS Mincho&amp;quot;;mso-fareast-theme-font:minor-fareast;mso-hansi-theme-font:minor-latin;&lt;br/&gt;mso-bidi-font-family:&amp;quot;Times New Roman&amp;quot;;mso-bidi-theme-font:minor-bidi;&lt;br/&gt;mso-ansi-language:EN-US;mso-fareast-language:EN-US;mso-bidi-language:AR-SA&quot; lang=&quot;EN-US&quot;&gt;nombre(NN, NVARCHAR(25))&lt;/span&gt;" style="shape=partialRectangle;connectable=0;fillColor=none;top=0;left=0;bottom=0;right=0;align=left;spacingLeft=6;overflow=hidden;whiteSpace=wrap;html=1;" vertex="1" parent="BuUG9W41u-PBjwoir0zU-6">
          <mxGeometry x="30" width="237.76" height="30" as="geometry">
            <mxRectangle width="237.76" height="30" as="alternateBounds" />
          </mxGeometry>
        </mxCell>
        <mxCell id="BuUG9W41u-PBjwoir0zU-9" value="" style="shape=tableRow;horizontal=0;startSize=0;swimlaneHead=0;swimlaneBody=0;fillColor=none;collapsible=0;dropTarget=0;points=[[0,0.5],[1,0.5]];portConstraint=eastwest;top=0;left=0;right=0;bottom=0;" vertex="1" parent="BuUG9W41u-PBjwoir0zU-2">
          <mxGeometry y="90" width="267.76" height="30" as="geometry" />
        </mxCell>
        <mxCell id="BuUG9W41u-PBjwoir0zU-10" value="" style="shape=partialRectangle;connectable=0;fillColor=none;top=0;left=0;bottom=0;right=0;editable=1;overflow=hidden;whiteSpace=wrap;html=1;" vertex="1" parent="BuUG9W41u-PBjwoir0zU-9">
          <mxGeometry width="30" height="30" as="geometry">
            <mxRectangle width="30" height="30" as="alternateBounds" />
          </mxGeometry>
        </mxCell>
        <mxCell id="BuUG9W41u-PBjwoir0zU-11" value="apellido(NN, NVARCHAR(25))" style="shape=partialRectangle;connectable=0;fillColor=none;top=0;left=0;bottom=0;right=0;align=left;spacingLeft=6;overflow=hidden;whiteSpace=wrap;html=1;" vertex="1" parent="BuUG9W41u-PBjwoir0zU-9">
          <mxGeometry x="30" width="237.76" height="30" as="geometry">
            <mxRectangle width="237.76" height="30" as="alternateBounds" />
          </mxGeometry>
        </mxCell>
        <mxCell id="BuUG9W41u-PBjwoir0zU-12" value="" style="shape=tableRow;horizontal=0;startSize=0;swimlaneHead=0;swimlaneBody=0;fillColor=none;collapsible=0;dropTarget=0;points=[[0,0.5],[1,0.5]];portConstraint=eastwest;top=0;left=0;right=0;bottom=0;" vertex="1" parent="BuUG9W41u-PBjwoir0zU-2">
          <mxGeometry y="120" width="267.76" height="30" as="geometry" />
        </mxCell>
        <mxCell id="BuUG9W41u-PBjwoir0zU-13" value="" style="shape=partialRectangle;connectable=0;fillColor=none;top=0;left=0;bottom=0;right=0;editable=1;overflow=hidden;whiteSpace=wrap;html=1;" vertex="1" parent="BuUG9W41u-PBjwoir0zU-12">
          <mxGeometry width="30" height="30" as="geometry">
            <mxRectangle width="30" height="30" as="alternateBounds" />
          </mxGeometry>
        </mxCell>
        <mxCell id="BuUG9W41u-PBjwoir0zU-14" value="email(NN, NVARCHAR(25), UNIQUE)" style="shape=partialRectangle;connectable=0;fillColor=none;top=0;left=0;bottom=0;right=0;align=left;spacingLeft=6;overflow=hidden;whiteSpace=wrap;html=1;" vertex="1" parent="BuUG9W41u-PBjwoir0zU-12">
          <mxGeometry x="30" width="237.76" height="30" as="geometry">
            <mxRectangle width="237.76" height="30" as="alternateBounds" />
          </mxGeometry>
        </mxCell>
        <mxCell id="BuUG9W41u-PBjwoir0zU-15" value="" style="shape=tableRow;horizontal=0;startSize=0;swimlaneHead=0;swimlaneBody=0;fillColor=none;collapsible=0;dropTarget=0;points=[[0,0.5],[1,0.5]];portConstraint=eastwest;top=0;left=0;right=0;bottom=0;" vertex="1" parent="BuUG9W41u-PBjwoir0zU-2">
          <mxGeometry y="150" width="267.76" height="30" as="geometry" />
        </mxCell>
        <mxCell id="BuUG9W41u-PBjwoir0zU-16" value="" style="shape=partialRectangle;connectable=0;fillColor=none;top=0;left=0;bottom=0;right=0;editable=1;overflow=hidden;whiteSpace=wrap;html=1;" vertex="1" parent="BuUG9W41u-PBjwoir0zU-15">
          <mxGeometry width="30" height="30" as="geometry">
            <mxRectangle width="30" height="30" as="alternateBounds" />
          </mxGeometry>
        </mxCell>
        <mxCell id="BuUG9W41u-PBjwoir0zU-17" value="cedula(NN, VARCHAR(10), UNIQUE)" style="shape=partialRectangle;connectable=0;fillColor=none;top=0;left=0;bottom=0;right=0;align=left;spacingLeft=6;overflow=hidden;whiteSpace=wrap;html=1;" vertex="1" parent="BuUG9W41u-PBjwoir0zU-15">
          <mxGeometry x="30" width="237.76" height="30" as="geometry">
            <mxRectangle width="237.76" height="30" as="alternateBounds" />
          </mxGeometry>
        </mxCell>
        <mxCell id="BuUG9W41u-PBjwoir0zU-18" value="" style="shape=tableRow;horizontal=0;startSize=0;swimlaneHead=0;swimlaneBody=0;fillColor=none;collapsible=0;dropTarget=0;points=[[0,0.5],[1,0.5]];portConstraint=eastwest;top=0;left=0;right=0;bottom=0;" vertex="1" parent="BuUG9W41u-PBjwoir0zU-2">
          <mxGeometry y="180" width="267.76" height="30" as="geometry" />
        </mxCell>
        <mxCell id="BuUG9W41u-PBjwoir0zU-19" value="" style="shape=partialRectangle;connectable=0;fillColor=none;top=0;left=0;bottom=0;right=0;editable=1;overflow=hidden;whiteSpace=wrap;html=1;" vertex="1" parent="BuUG9W41u-PBjwoir0zU-18">
          <mxGeometry width="30" height="30" as="geometry">
            <mxRectangle width="30" height="30" as="alternateBounds" />
          </mxGeometry>
        </mxCell>
        <mxCell id="BuUG9W41u-PBjwoir0zU-20" value="fechaNaci(NN,DATE)" style="shape=partialRectangle;connectable=0;fillColor=none;top=0;left=0;bottom=0;right=0;align=left;spacingLeft=6;overflow=hidden;whiteSpace=wrap;html=1;" vertex="1" parent="BuUG9W41u-PBjwoir0zU-18">
          <mxGeometry x="30" width="237.76" height="30" as="geometry">
            <mxRectangle width="237.76" height="30" as="alternateBounds" />
          </mxGeometry>
        </mxCell>
        <mxCell id="BuUG9W41u-PBjwoir0zU-21" value="Evento" style="shape=table;startSize=30;container=1;collapsible=1;childLayout=tableLayout;fixedRows=1;rowLines=0;fontStyle=1;align=center;resizeLast=1;html=1;" vertex="1" parent="1">
          <mxGeometry x="-1330.08" y="2608" width="262.24" height="330" as="geometry" />
        </mxCell>
        <mxCell id="BuUG9W41u-PBjwoir0zU-22" value="" style="shape=tableRow;horizontal=0;startSize=0;swimlaneHead=0;swimlaneBody=0;fillColor=none;collapsible=0;dropTarget=0;points=[[0,0.5],[1,0.5]];portConstraint=eastwest;top=0;left=0;right=0;bottom=1;" vertex="1" parent="BuUG9W41u-PBjwoir0zU-21">
          <mxGeometry y="30" width="262.24" height="30" as="geometry" />
        </mxCell>
        <mxCell id="BuUG9W41u-PBjwoir0zU-23" value="PK" style="shape=partialRectangle;connectable=0;fillColor=none;top=0;left=0;bottom=0;right=0;fontStyle=1;overflow=hidden;whiteSpace=wrap;html=1;" vertex="1" parent="BuUG9W41u-PBjwoir0zU-22">
          <mxGeometry width="30" height="30" as="geometry">
            <mxRectangle width="30" height="30" as="alternateBounds" />
          </mxGeometry>
        </mxCell>
        <mxCell id="BuUG9W41u-PBjwoir0zU-24" value="ID_Evento(INTIdentity)" style="shape=partialRectangle;connectable=0;fillColor=none;top=0;left=0;bottom=0;right=0;align=left;spacingLeft=6;fontStyle=5;overflow=hidden;whiteSpace=wrap;html=1;" vertex="1" parent="BuUG9W41u-PBjwoir0zU-22">
          <mxGeometry x="30" width="232.24" height="30" as="geometry">
            <mxRectangle width="232.24" height="30" as="alternateBounds" />
          </mxGeometry>
        </mxCell>
        <mxCell id="BuUG9W41u-PBjwoir0zU-25" value="" style="shape=tableRow;horizontal=0;startSize=0;swimlaneHead=0;swimlaneBody=0;fillColor=none;collapsible=0;dropTarget=0;points=[[0,0.5],[1,0.5]];portConstraint=eastwest;top=0;left=0;right=0;bottom=1;" vertex="1" parent="BuUG9W41u-PBjwoir0zU-21">
          <mxGeometry y="60" width="262.24" height="30" as="geometry" />
        </mxCell>
        <mxCell id="BuUG9W41u-PBjwoir0zU-26" value="FK" style="shape=partialRectangle;connectable=0;fillColor=none;top=0;left=0;bottom=0;right=0;fontStyle=1;overflow=hidden;whiteSpace=wrap;html=1;" vertex="1" parent="BuUG9W41u-PBjwoir0zU-25">
          <mxGeometry width="30" height="30" as="geometry">
            <mxRectangle width="30" height="30" as="alternateBounds" />
          </mxGeometry>
        </mxCell>
        <mxCell id="BuUG9W41u-PBjwoir0zU-27" value="ID_Artista(NN,INT)" style="shape=partialRectangle;connectable=0;fillColor=none;top=0;left=0;bottom=0;right=0;align=left;spacingLeft=6;fontStyle=5;overflow=hidden;whiteSpace=wrap;html=1;" vertex="1" parent="BuUG9W41u-PBjwoir0zU-25">
          <mxGeometry x="30" width="232.24" height="30" as="geometry">
            <mxRectangle width="232.24" height="30" as="alternateBounds" />
          </mxGeometry>
        </mxCell>
        <mxCell id="BuUG9W41u-PBjwoir0zU-28" value="" style="shape=tableRow;horizontal=0;startSize=0;swimlaneHead=0;swimlaneBody=0;fillColor=none;collapsible=0;dropTarget=0;points=[[0,0.5],[1,0.5]];portConstraint=eastwest;top=0;left=0;right=0;bottom=1;" vertex="1" parent="BuUG9W41u-PBjwoir0zU-21">
          <mxGeometry y="90" width="262.24" height="30" as="geometry" />
        </mxCell>
        <mxCell id="BuUG9W41u-PBjwoir0zU-29" value="FK" style="shape=partialRectangle;connectable=0;fillColor=none;top=0;left=0;bottom=0;right=0;fontStyle=1;overflow=hidden;whiteSpace=wrap;html=1;" vertex="1" parent="BuUG9W41u-PBjwoir0zU-28">
          <mxGeometry width="30" height="30" as="geometry">
            <mxRectangle width="30" height="30" as="alternateBounds" />
          </mxGeometry>
        </mxCell>
        <mxCell id="BuUG9W41u-PBjwoir0zU-30" value="&lt;div style=&quot;text-align: center;&quot;&gt;&lt;span style=&quot;background-color: initial;&quot;&gt;ID_&lt;/span&gt;&lt;span style=&quot;background-color: initial; text-wrap: nowrap; text-align: center;&quot;&gt;Asiento&lt;/span&gt;&lt;span style=&quot;background-color: initial; text-wrap: nowrap;&quot;&gt;(NN,INT)&lt;/span&gt;&lt;/div&gt;" style="shape=partialRectangle;connectable=0;fillColor=none;top=0;left=0;bottom=0;right=0;align=left;spacingLeft=6;fontStyle=5;overflow=hidden;whiteSpace=wrap;html=1;" vertex="1" parent="BuUG9W41u-PBjwoir0zU-28">
          <mxGeometry x="30" width="232.24" height="30" as="geometry">
            <mxRectangle width="232.24" height="30" as="alternateBounds" />
          </mxGeometry>
        </mxCell>
        <mxCell id="BuUG9W41u-PBjwoir0zU-31" value="" style="shape=tableRow;horizontal=0;startSize=0;swimlaneHead=0;swimlaneBody=0;fillColor=none;collapsible=0;dropTarget=0;points=[[0,0.5],[1,0.5]];portConstraint=eastwest;top=0;left=0;right=0;bottom=0;" vertex="1" parent="BuUG9W41u-PBjwoir0zU-21">
          <mxGeometry y="120" width="262.24" height="30" as="geometry" />
        </mxCell>
        <mxCell id="BuUG9W41u-PBjwoir0zU-32" value="" style="shape=partialRectangle;connectable=0;fillColor=none;top=0;left=0;bottom=0;right=0;editable=1;overflow=hidden;whiteSpace=wrap;html=1;" vertex="1" parent="BuUG9W41u-PBjwoir0zU-31">
          <mxGeometry width="30" height="30" as="geometry">
            <mxRectangle width="30" height="30" as="alternateBounds" />
          </mxGeometry>
        </mxCell>
        <mxCell id="BuUG9W41u-PBjwoir0zU-33" value="&lt;font face=&quot;Cambria, serif&quot;&gt;&lt;span style=&quot;font-size: 14.6667px;&quot;&gt;lugar(NN, NVARCHAR(25))&lt;/span&gt;&lt;/font&gt;" style="shape=partialRectangle;connectable=0;fillColor=none;top=0;left=0;bottom=0;right=0;align=left;spacingLeft=6;overflow=hidden;whiteSpace=wrap;html=1;" vertex="1" parent="BuUG9W41u-PBjwoir0zU-31">
          <mxGeometry x="30" width="232.24" height="30" as="geometry">
            <mxRectangle width="232.24" height="30" as="alternateBounds" />
          </mxGeometry>
        </mxCell>
        <mxCell id="BuUG9W41u-PBjwoir0zU-34" value="" style="shape=tableRow;horizontal=0;startSize=0;swimlaneHead=0;swimlaneBody=0;fillColor=none;collapsible=0;dropTarget=0;points=[[0,0.5],[1,0.5]];portConstraint=eastwest;top=0;left=0;right=0;bottom=0;" vertex="1" parent="BuUG9W41u-PBjwoir0zU-21">
          <mxGeometry y="150" width="262.24" height="30" as="geometry" />
        </mxCell>
        <mxCell id="BuUG9W41u-PBjwoir0zU-35" value="" style="shape=partialRectangle;connectable=0;fillColor=none;top=0;left=0;bottom=0;right=0;editable=1;overflow=hidden;whiteSpace=wrap;html=1;" vertex="1" parent="BuUG9W41u-PBjwoir0zU-34">
          <mxGeometry width="30" height="30" as="geometry">
            <mxRectangle width="30" height="30" as="alternateBounds" />
          </mxGeometry>
        </mxCell>
        <mxCell id="BuUG9W41u-PBjwoir0zU-36" value="&lt;font face=&quot;Cambria, serif&quot;&gt;&lt;span style=&quot;font-size: 14.6667px;&quot;&gt;capacidad(NN, TINYINT)&lt;/span&gt;&lt;/font&gt;" style="shape=partialRectangle;connectable=0;fillColor=none;top=0;left=0;bottom=0;right=0;align=left;spacingLeft=6;overflow=hidden;whiteSpace=wrap;html=1;" vertex="1" parent="BuUG9W41u-PBjwoir0zU-34">
          <mxGeometry x="30" width="232.24" height="30" as="geometry">
            <mxRectangle width="232.24" height="30" as="alternateBounds" />
          </mxGeometry>
        </mxCell>
        <mxCell id="BuUG9W41u-PBjwoir0zU-37" value="" style="shape=tableRow;horizontal=0;startSize=0;swimlaneHead=0;swimlaneBody=0;fillColor=none;collapsible=0;dropTarget=0;points=[[0,0.5],[1,0.5]];portConstraint=eastwest;top=0;left=0;right=0;bottom=0;" vertex="1" parent="BuUG9W41u-PBjwoir0zU-21">
          <mxGeometry y="180" width="262.24" height="30" as="geometry" />
        </mxCell>
        <mxCell id="BuUG9W41u-PBjwoir0zU-38" value="" style="shape=partialRectangle;connectable=0;fillColor=none;top=0;left=0;bottom=0;right=0;editable=1;overflow=hidden;whiteSpace=wrap;html=1;" vertex="1" parent="BuUG9W41u-PBjwoir0zU-37">
          <mxGeometry width="30" height="30" as="geometry">
            <mxRectangle width="30" height="30" as="alternateBounds" />
          </mxGeometry>
        </mxCell>
        <mxCell id="BuUG9W41u-PBjwoir0zU-39" value="&lt;font face=&quot;Cambria, serif&quot;&gt;&lt;span style=&quot;font-size: 14.6667px;&quot;&gt;nombreGira(NN, NVARCHAR(25))&lt;/span&gt;&lt;/font&gt;" style="shape=partialRectangle;connectable=0;fillColor=none;top=0;left=0;bottom=0;right=0;align=left;spacingLeft=6;overflow=hidden;whiteSpace=wrap;html=1;" vertex="1" parent="BuUG9W41u-PBjwoir0zU-37">
          <mxGeometry x="30" width="232.24" height="30" as="geometry">
            <mxRectangle width="232.24" height="30" as="alternateBounds" />
          </mxGeometry>
        </mxCell>
        <mxCell id="BuUG9W41u-PBjwoir0zU-40" value="" style="shape=tableRow;horizontal=0;startSize=0;swimlaneHead=0;swimlaneBody=0;fillColor=none;collapsible=0;dropTarget=0;points=[[0,0.5],[1,0.5]];portConstraint=eastwest;top=0;left=0;right=0;bottom=0;" vertex="1" parent="BuUG9W41u-PBjwoir0zU-21">
          <mxGeometry y="210" width="262.24" height="30" as="geometry" />
        </mxCell>
        <mxCell id="BuUG9W41u-PBjwoir0zU-41" value="" style="shape=partialRectangle;connectable=0;fillColor=none;top=0;left=0;bottom=0;right=0;editable=1;overflow=hidden;whiteSpace=wrap;html=1;" vertex="1" parent="BuUG9W41u-PBjwoir0zU-40">
          <mxGeometry width="30" height="30" as="geometry">
            <mxRectangle width="30" height="30" as="alternateBounds" />
          </mxGeometry>
        </mxCell>
        <mxCell id="BuUG9W41u-PBjwoir0zU-42" value="fechaEve(NN,DATE)" style="shape=partialRectangle;connectable=0;fillColor=none;top=0;left=0;bottom=0;right=0;align=left;spacingLeft=6;overflow=hidden;whiteSpace=wrap;html=1;" vertex="1" parent="BuUG9W41u-PBjwoir0zU-40">
          <mxGeometry x="30" width="232.24" height="30" as="geometry">
            <mxRectangle width="232.24" height="30" as="alternateBounds" />
          </mxGeometry>
        </mxCell>
        <mxCell id="BuUG9W41u-PBjwoir0zU-43" value="" style="shape=tableRow;horizontal=0;startSize=0;swimlaneHead=0;swimlaneBody=0;fillColor=none;collapsible=0;dropTarget=0;points=[[0,0.5],[1,0.5]];portConstraint=eastwest;top=0;left=0;right=0;bottom=0;" vertex="1" parent="BuUG9W41u-PBjwoir0zU-21">
          <mxGeometry y="240" width="262.24" height="30" as="geometry" />
        </mxCell>
        <mxCell id="BuUG9W41u-PBjwoir0zU-44" value="" style="shape=partialRectangle;connectable=0;fillColor=none;top=0;left=0;bottom=0;right=0;editable=1;overflow=hidden;whiteSpace=wrap;html=1;" vertex="1" parent="BuUG9W41u-PBjwoir0zU-43">
          <mxGeometry width="30" height="30" as="geometry">
            <mxRectangle width="30" height="30" as="alternateBounds" />
          </mxGeometry>
        </mxCell>
        <mxCell id="BuUG9W41u-PBjwoir0zU-45" value="direccion(NN, NVARCHAR(25))" style="shape=partialRectangle;connectable=0;fillColor=none;top=0;left=0;bottom=0;right=0;align=left;spacingLeft=6;overflow=hidden;whiteSpace=wrap;html=1;" vertex="1" parent="BuUG9W41u-PBjwoir0zU-43">
          <mxGeometry x="30" width="232.24" height="30" as="geometry">
            <mxRectangle width="232.24" height="30" as="alternateBounds" />
          </mxGeometry>
        </mxCell>
        <mxCell id="BuUG9W41u-PBjwoir0zU-46" value="" style="shape=tableRow;horizontal=0;startSize=0;swimlaneHead=0;swimlaneBody=0;fillColor=none;collapsible=0;dropTarget=0;points=[[0,0.5],[1,0.5]];portConstraint=eastwest;top=0;left=0;right=0;bottom=0;" vertex="1" parent="BuUG9W41u-PBjwoir0zU-21">
          <mxGeometry y="270" width="262.24" height="30" as="geometry" />
        </mxCell>
        <mxCell id="BuUG9W41u-PBjwoir0zU-47" value="" style="shape=partialRectangle;connectable=0;fillColor=none;top=0;left=0;bottom=0;right=0;editable=1;overflow=hidden;whiteSpace=wrap;html=1;" vertex="1" parent="BuUG9W41u-PBjwoir0zU-46">
          <mxGeometry width="30" height="30" as="geometry">
            <mxRectangle width="30" height="30" as="alternateBounds" />
          </mxGeometry>
        </mxCell>
        <mxCell id="BuUG9W41u-PBjwoir0zU-48" value="horaIni(NN,TIMESTAMP)" style="shape=partialRectangle;connectable=0;fillColor=none;top=0;left=0;bottom=0;right=0;align=left;spacingLeft=6;overflow=hidden;whiteSpace=wrap;html=1;" vertex="1" parent="BuUG9W41u-PBjwoir0zU-46">
          <mxGeometry x="30" width="232.24" height="30" as="geometry">
            <mxRectangle width="232.24" height="30" as="alternateBounds" />
          </mxGeometry>
        </mxCell>
        <mxCell id="BuUG9W41u-PBjwoir0zU-49" value="" style="shape=tableRow;horizontal=0;startSize=0;swimlaneHead=0;swimlaneBody=0;fillColor=none;collapsible=0;dropTarget=0;points=[[0,0.5],[1,0.5]];portConstraint=eastwest;top=0;left=0;right=0;bottom=0;" vertex="1" parent="BuUG9W41u-PBjwoir0zU-21">
          <mxGeometry y="300" width="262.24" height="30" as="geometry" />
        </mxCell>
        <mxCell id="BuUG9W41u-PBjwoir0zU-50" value="" style="shape=partialRectangle;connectable=0;fillColor=none;top=0;left=0;bottom=0;right=0;editable=1;overflow=hidden;whiteSpace=wrap;html=1;" vertex="1" parent="BuUG9W41u-PBjwoir0zU-49">
          <mxGeometry width="30" height="30" as="geometry">
            <mxRectangle width="30" height="30" as="alternateBounds" />
          </mxGeometry>
        </mxCell>
        <mxCell id="BuUG9W41u-PBjwoir0zU-51" value="horaIni(NN,TIMESTAMP)" style="shape=partialRectangle;connectable=0;fillColor=none;top=0;left=0;bottom=0;right=0;align=left;spacingLeft=6;overflow=hidden;whiteSpace=wrap;html=1;" vertex="1" parent="BuUG9W41u-PBjwoir0zU-49">
          <mxGeometry x="30" width="232.24" height="30" as="geometry">
            <mxRectangle width="232.24" height="30" as="alternateBounds" />
          </mxGeometry>
        </mxCell>
        <mxCell id="BuUG9W41u-PBjwoir0zU-52" value="Artista" style="shape=table;startSize=30;container=1;collapsible=1;childLayout=tableLayout;fixedRows=1;rowLines=0;fontStyle=1;align=center;resizeLast=1;html=1;" vertex="1" parent="1">
          <mxGeometry x="-890.0799999999999" y="2522" width="260" height="180" as="geometry" />
        </mxCell>
        <mxCell id="BuUG9W41u-PBjwoir0zU-53" value="" style="shape=tableRow;horizontal=0;startSize=0;swimlaneHead=0;swimlaneBody=0;fillColor=none;collapsible=0;dropTarget=0;points=[[0,0.5],[1,0.5]];portConstraint=eastwest;top=0;left=0;right=0;bottom=1;" vertex="1" parent="BuUG9W41u-PBjwoir0zU-52">
          <mxGeometry y="30" width="260" height="30" as="geometry" />
        </mxCell>
        <mxCell id="BuUG9W41u-PBjwoir0zU-54" value="PK" style="shape=partialRectangle;connectable=0;fillColor=none;top=0;left=0;bottom=0;right=0;fontStyle=1;overflow=hidden;whiteSpace=wrap;html=1;" vertex="1" parent="BuUG9W41u-PBjwoir0zU-53">
          <mxGeometry width="30" height="30" as="geometry">
            <mxRectangle width="30" height="30" as="alternateBounds" />
          </mxGeometry>
        </mxCell>
        <mxCell id="BuUG9W41u-PBjwoir0zU-55" value="ID_Artista(INTIdentity)" style="shape=partialRectangle;connectable=0;fillColor=none;top=0;left=0;bottom=0;right=0;align=left;spacingLeft=6;fontStyle=5;overflow=hidden;whiteSpace=wrap;html=1;" vertex="1" parent="BuUG9W41u-PBjwoir0zU-53">
          <mxGeometry x="30" width="230" height="30" as="geometry">
            <mxRectangle width="230" height="30" as="alternateBounds" />
          </mxGeometry>
        </mxCell>
        <mxCell id="BuUG9W41u-PBjwoir0zU-56" value="" style="shape=tableRow;horizontal=0;startSize=0;swimlaneHead=0;swimlaneBody=0;fillColor=none;collapsible=0;dropTarget=0;points=[[0,0.5],[1,0.5]];portConstraint=eastwest;top=0;left=0;right=0;bottom=0;" vertex="1" parent="BuUG9W41u-PBjwoir0zU-52">
          <mxGeometry y="60" width="260" height="30" as="geometry" />
        </mxCell>
        <mxCell id="BuUG9W41u-PBjwoir0zU-57" value="" style="shape=partialRectangle;connectable=0;fillColor=none;top=0;left=0;bottom=0;right=0;editable=1;overflow=hidden;whiteSpace=wrap;html=1;" vertex="1" parent="BuUG9W41u-PBjwoir0zU-56">
          <mxGeometry width="30" height="30" as="geometry">
            <mxRectangle width="30" height="30" as="alternateBounds" />
          </mxGeometry>
        </mxCell>
        <mxCell id="BuUG9W41u-PBjwoir0zU-58" value="&lt;font face=&quot;Cambria, serif&quot;&gt;&lt;span style=&quot;font-size: 14.6667px;&quot;&gt;nombreArt(NN, NVARCHAR(25))&lt;/span&gt;&lt;/font&gt;" style="shape=partialRectangle;connectable=0;fillColor=none;top=0;left=0;bottom=0;right=0;align=left;spacingLeft=6;overflow=hidden;whiteSpace=wrap;html=1;" vertex="1" parent="BuUG9W41u-PBjwoir0zU-56">
          <mxGeometry x="30" width="230" height="30" as="geometry">
            <mxRectangle width="230" height="30" as="alternateBounds" />
          </mxGeometry>
        </mxCell>
        <mxCell id="BuUG9W41u-PBjwoir0zU-59" value="" style="shape=tableRow;horizontal=0;startSize=0;swimlaneHead=0;swimlaneBody=0;fillColor=none;collapsible=0;dropTarget=0;points=[[0,0.5],[1,0.5]];portConstraint=eastwest;top=0;left=0;right=0;bottom=0;" vertex="1" parent="BuUG9W41u-PBjwoir0zU-52">
          <mxGeometry y="90" width="260" height="30" as="geometry" />
        </mxCell>
        <mxCell id="BuUG9W41u-PBjwoir0zU-60" value="" style="shape=partialRectangle;connectable=0;fillColor=none;top=0;left=0;bottom=0;right=0;editable=1;overflow=hidden;whiteSpace=wrap;html=1;" vertex="1" parent="BuUG9W41u-PBjwoir0zU-59">
          <mxGeometry width="30" height="30" as="geometry">
            <mxRectangle width="30" height="30" as="alternateBounds" />
          </mxGeometry>
        </mxCell>
        <mxCell id="BuUG9W41u-PBjwoir0zU-61" value="apellidoArt(NN, NVARCHAR(25))" style="shape=partialRectangle;connectable=0;fillColor=none;top=0;left=0;bottom=0;right=0;align=left;spacingLeft=6;overflow=hidden;whiteSpace=wrap;html=1;" vertex="1" parent="BuUG9W41u-PBjwoir0zU-59">
          <mxGeometry x="30" width="230" height="30" as="geometry">
            <mxRectangle width="230" height="30" as="alternateBounds" />
          </mxGeometry>
        </mxCell>
        <mxCell id="BuUG9W41u-PBjwoir0zU-62" value="" style="shape=tableRow;horizontal=0;startSize=0;swimlaneHead=0;swimlaneBody=0;fillColor=none;collapsible=0;dropTarget=0;points=[[0,0.5],[1,0.5]];portConstraint=eastwest;top=0;left=0;right=0;bottom=0;" vertex="1" parent="BuUG9W41u-PBjwoir0zU-52">
          <mxGeometry y="120" width="260" height="30" as="geometry" />
        </mxCell>
        <mxCell id="BuUG9W41u-PBjwoir0zU-63" value="" style="shape=partialRectangle;connectable=0;fillColor=none;top=0;left=0;bottom=0;right=0;editable=1;overflow=hidden;whiteSpace=wrap;html=1;" vertex="1" parent="BuUG9W41u-PBjwoir0zU-62">
          <mxGeometry width="30" height="30" as="geometry">
            <mxRectangle width="30" height="30" as="alternateBounds" />
          </mxGeometry>
        </mxCell>
        <mxCell id="BuUG9W41u-PBjwoir0zU-64" value="seudonimo(NN, NVARCHAR(25))" style="shape=partialRectangle;connectable=0;fillColor=none;top=0;left=0;bottom=0;right=0;align=left;spacingLeft=6;overflow=hidden;whiteSpace=wrap;html=1;" vertex="1" parent="BuUG9W41u-PBjwoir0zU-62">
          <mxGeometry x="30" width="230" height="30" as="geometry">
            <mxRectangle width="230" height="30" as="alternateBounds" />
          </mxGeometry>
        </mxCell>
        <mxCell id="BuUG9W41u-PBjwoir0zU-65" value="" style="shape=tableRow;horizontal=0;startSize=0;swimlaneHead=0;swimlaneBody=0;fillColor=none;collapsible=0;dropTarget=0;points=[[0,0.5],[1,0.5]];portConstraint=eastwest;top=0;left=0;right=0;bottom=0;" vertex="1" parent="BuUG9W41u-PBjwoir0zU-52">
          <mxGeometry y="150" width="260" height="30" as="geometry" />
        </mxCell>
        <mxCell id="BuUG9W41u-PBjwoir0zU-66" value="" style="shape=partialRectangle;connectable=0;fillColor=none;top=0;left=0;bottom=0;right=0;editable=1;overflow=hidden;whiteSpace=wrap;html=1;" vertex="1" parent="BuUG9W41u-PBjwoir0zU-65">
          <mxGeometry width="30" height="30" as="geometry">
            <mxRectangle width="30" height="30" as="alternateBounds" />
          </mxGeometry>
        </mxCell>
        <mxCell id="BuUG9W41u-PBjwoir0zU-67" value="genroMus(NN, NVARCHAR(25))" style="shape=partialRectangle;connectable=0;fillColor=none;top=0;left=0;bottom=0;right=0;align=left;spacingLeft=6;overflow=hidden;whiteSpace=wrap;html=1;" vertex="1" parent="BuUG9W41u-PBjwoir0zU-65">
          <mxGeometry x="30" width="230" height="30" as="geometry">
            <mxRectangle width="230" height="30" as="alternateBounds" />
          </mxGeometry>
        </mxCell>
        <mxCell id="BuUG9W41u-PBjwoir0zU-68" value="" style="edgeStyle=orthogonalEdgeStyle;fontSize=12;html=1;endArrow=ERoneToMany;rounded=0;startSize=8;endSize=8;exitX=1;exitY=0.5;exitDx=0;exitDy=0;entryX=0;entryY=0.5;entryDx=0;entryDy=0;" edge="1" parent="1" source="BuUG9W41u-PBjwoir0zU-25" target="BuUG9W41u-PBjwoir0zU-53">
          <mxGeometry width="100" height="100" relative="1" as="geometry">
            <mxPoint x="-1030.08" y="2748" as="sourcePoint" />
            <mxPoint x="-930.0799999999999" y="2648" as="targetPoint" />
          </mxGeometry>
        </mxCell>
        <mxCell id="BuUG9W41u-PBjwoir0zU-69" value="Asiento" style="shape=table;startSize=30;container=1;collapsible=1;childLayout=tableLayout;fixedRows=1;rowLines=0;fontStyle=1;align=center;resizeLast=1;html=1;" vertex="1" parent="1">
          <mxGeometry x="-887.8399999999999" y="2742" width="257.76" height="180" as="geometry" />
        </mxCell>
        <mxCell id="BuUG9W41u-PBjwoir0zU-70" value="" style="shape=tableRow;horizontal=0;startSize=0;swimlaneHead=0;swimlaneBody=0;fillColor=none;collapsible=0;dropTarget=0;points=[[0,0.5],[1,0.5]];portConstraint=eastwest;top=0;left=0;right=0;bottom=1;" vertex="1" parent="BuUG9W41u-PBjwoir0zU-69">
          <mxGeometry y="30" width="257.76" height="30" as="geometry" />
        </mxCell>
        <mxCell id="BuUG9W41u-PBjwoir0zU-71" value="PK" style="shape=partialRectangle;connectable=0;fillColor=none;top=0;left=0;bottom=0;right=0;fontStyle=1;overflow=hidden;whiteSpace=wrap;html=1;" vertex="1" parent="BuUG9W41u-PBjwoir0zU-70">
          <mxGeometry width="30" height="30" as="geometry">
            <mxRectangle width="30" height="30" as="alternateBounds" />
          </mxGeometry>
        </mxCell>
        <mxCell id="BuUG9W41u-PBjwoir0zU-72" value="ID_&lt;span style=&quot;text-align: center; text-wrap: nowrap;&quot;&gt;Asiento&lt;/span&gt;(INTIdentity)" style="shape=partialRectangle;connectable=0;fillColor=none;top=0;left=0;bottom=0;right=0;align=left;spacingLeft=6;fontStyle=5;overflow=hidden;whiteSpace=wrap;html=1;" vertex="1" parent="BuUG9W41u-PBjwoir0zU-70">
          <mxGeometry x="30" width="227.76" height="30" as="geometry">
            <mxRectangle width="227.76" height="30" as="alternateBounds" />
          </mxGeometry>
        </mxCell>
        <mxCell id="BuUG9W41u-PBjwoir0zU-73" value="" style="shape=tableRow;horizontal=0;startSize=0;swimlaneHead=0;swimlaneBody=0;fillColor=none;collapsible=0;dropTarget=0;points=[[0,0.5],[1,0.5]];portConstraint=eastwest;top=0;left=0;right=0;bottom=0;" vertex="1" parent="BuUG9W41u-PBjwoir0zU-69">
          <mxGeometry y="60" width="257.76" height="30" as="geometry" />
        </mxCell>
        <mxCell id="BuUG9W41u-PBjwoir0zU-74" value="" style="shape=partialRectangle;connectable=0;fillColor=none;top=0;left=0;bottom=0;right=0;editable=1;overflow=hidden;whiteSpace=wrap;html=1;" vertex="1" parent="BuUG9W41u-PBjwoir0zU-73">
          <mxGeometry width="30" height="30" as="geometry">
            <mxRectangle width="30" height="30" as="alternateBounds" />
          </mxGeometry>
        </mxCell>
        <mxCell id="BuUG9W41u-PBjwoir0zU-75" value="&lt;font face=&quot;Cambria, serif&quot;&gt;&lt;span style=&quot;font-size: 14.6667px;&quot;&gt;localidad(NN, NVARCHAR(10))&lt;/span&gt;&lt;/font&gt;" style="shape=partialRectangle;connectable=0;fillColor=none;top=0;left=0;bottom=0;right=0;align=left;spacingLeft=6;overflow=hidden;whiteSpace=wrap;html=1;" vertex="1" parent="BuUG9W41u-PBjwoir0zU-73">
          <mxGeometry x="30" width="227.76" height="30" as="geometry">
            <mxRectangle width="227.76" height="30" as="alternateBounds" />
          </mxGeometry>
        </mxCell>
        <mxCell id="BuUG9W41u-PBjwoir0zU-76" value="" style="shape=tableRow;horizontal=0;startSize=0;swimlaneHead=0;swimlaneBody=0;fillColor=none;collapsible=0;dropTarget=0;points=[[0,0.5],[1,0.5]];portConstraint=eastwest;top=0;left=0;right=0;bottom=0;" vertex="1" parent="BuUG9W41u-PBjwoir0zU-69">
          <mxGeometry y="90" width="257.76" height="30" as="geometry" />
        </mxCell>
        <mxCell id="BuUG9W41u-PBjwoir0zU-77" value="" style="shape=partialRectangle;connectable=0;fillColor=none;top=0;left=0;bottom=0;right=0;editable=1;overflow=hidden;whiteSpace=wrap;html=1;" vertex="1" parent="BuUG9W41u-PBjwoir0zU-76">
          <mxGeometry width="30" height="30" as="geometry">
            <mxRectangle width="30" height="30" as="alternateBounds" />
          </mxGeometry>
        </mxCell>
        <mxCell id="BuUG9W41u-PBjwoir0zU-78" value="bloque(NN, NVARCHAR(1))" style="shape=partialRectangle;connectable=0;fillColor=none;top=0;left=0;bottom=0;right=0;align=left;spacingLeft=6;overflow=hidden;whiteSpace=wrap;html=1;" vertex="1" parent="BuUG9W41u-PBjwoir0zU-76">
          <mxGeometry x="30" width="227.76" height="30" as="geometry">
            <mxRectangle width="227.76" height="30" as="alternateBounds" />
          </mxGeometry>
        </mxCell>
        <mxCell id="BuUG9W41u-PBjwoir0zU-79" value="" style="shape=tableRow;horizontal=0;startSize=0;swimlaneHead=0;swimlaneBody=0;fillColor=none;collapsible=0;dropTarget=0;points=[[0,0.5],[1,0.5]];portConstraint=eastwest;top=0;left=0;right=0;bottom=0;" vertex="1" parent="BuUG9W41u-PBjwoir0zU-69">
          <mxGeometry y="120" width="257.76" height="30" as="geometry" />
        </mxCell>
        <mxCell id="BuUG9W41u-PBjwoir0zU-80" value="" style="shape=partialRectangle;connectable=0;fillColor=none;top=0;left=0;bottom=0;right=0;editable=1;overflow=hidden;whiteSpace=wrap;html=1;" vertex="1" parent="BuUG9W41u-PBjwoir0zU-79">
          <mxGeometry width="30" height="30" as="geometry">
            <mxRectangle width="30" height="30" as="alternateBounds" />
          </mxGeometry>
        </mxCell>
        <mxCell id="BuUG9W41u-PBjwoir0zU-81" value="fila(NN, TINYINT)" style="shape=partialRectangle;connectable=0;fillColor=none;top=0;left=0;bottom=0;right=0;align=left;spacingLeft=6;overflow=hidden;whiteSpace=wrap;html=1;" vertex="1" parent="BuUG9W41u-PBjwoir0zU-79">
          <mxGeometry x="30" width="227.76" height="30" as="geometry">
            <mxRectangle width="227.76" height="30" as="alternateBounds" />
          </mxGeometry>
        </mxCell>
        <mxCell id="BuUG9W41u-PBjwoir0zU-82" value="" style="shape=tableRow;horizontal=0;startSize=0;swimlaneHead=0;swimlaneBody=0;fillColor=none;collapsible=0;dropTarget=0;points=[[0,0.5],[1,0.5]];portConstraint=eastwest;top=0;left=0;right=0;bottom=0;" vertex="1" parent="BuUG9W41u-PBjwoir0zU-69">
          <mxGeometry y="150" width="257.76" height="30" as="geometry" />
        </mxCell>
        <mxCell id="BuUG9W41u-PBjwoir0zU-83" value="" style="shape=partialRectangle;connectable=0;fillColor=none;top=0;left=0;bottom=0;right=0;editable=1;overflow=hidden;whiteSpace=wrap;html=1;" vertex="1" parent="BuUG9W41u-PBjwoir0zU-82">
          <mxGeometry width="30" height="30" as="geometry">
            <mxRectangle width="30" height="30" as="alternateBounds" />
          </mxGeometry>
        </mxCell>
        <mxCell id="BuUG9W41u-PBjwoir0zU-84" value="numero(NN, TINYINT)" style="shape=partialRectangle;connectable=0;fillColor=none;top=0;left=0;bottom=0;right=0;align=left;spacingLeft=6;overflow=hidden;whiteSpace=wrap;html=1;" vertex="1" parent="BuUG9W41u-PBjwoir0zU-82">
          <mxGeometry x="30" width="227.76" height="30" as="geometry">
            <mxRectangle width="227.76" height="30" as="alternateBounds" />
          </mxGeometry>
        </mxCell>
        <mxCell id="BuUG9W41u-PBjwoir0zU-85" value="" style="edgeStyle=orthogonalEdgeStyle;fontSize=12;html=1;endArrow=ERoneToMany;rounded=0;startSize=8;endSize=8;exitX=1;exitY=0.5;exitDx=0;exitDy=0;entryX=0;entryY=0.5;entryDx=0;entryDy=0;" edge="1" parent="1" source="BuUG9W41u-PBjwoir0zU-28" target="BuUG9W41u-PBjwoir0zU-70">
          <mxGeometry width="100" height="100" relative="1" as="geometry">
            <mxPoint x="-1058.08" y="2693" as="sourcePoint" />
            <mxPoint x="-880.0799999999999" y="2577" as="targetPoint" />
          </mxGeometry>
        </mxCell>
        <mxCell id="BuUG9W41u-PBjwoir0zU-86" value="Ticket" style="shape=table;startSize=30;container=1;collapsible=1;childLayout=tableLayout;fixedRows=1;rowLines=0;fontStyle=1;align=center;resizeLast=1;html=1;" vertex="1" parent="1">
          <mxGeometry x="-1660.08" y="2592" width="220" height="150" as="geometry" />
        </mxCell>
        <mxCell id="BuUG9W41u-PBjwoir0zU-87" value="" style="shape=tableRow;horizontal=0;startSize=0;swimlaneHead=0;swimlaneBody=0;fillColor=none;collapsible=0;dropTarget=0;points=[[0,0.5],[1,0.5]];portConstraint=eastwest;top=0;left=0;right=0;bottom=1;" vertex="1" parent="BuUG9W41u-PBjwoir0zU-86">
          <mxGeometry y="30" width="220" height="30" as="geometry" />
        </mxCell>
        <mxCell id="BuUG9W41u-PBjwoir0zU-88" value="PK" style="shape=partialRectangle;connectable=0;fillColor=none;top=0;left=0;bottom=0;right=0;fontStyle=1;overflow=hidden;whiteSpace=wrap;html=1;" vertex="1" parent="BuUG9W41u-PBjwoir0zU-87">
          <mxGeometry width="30" height="30" as="geometry">
            <mxRectangle width="30" height="30" as="alternateBounds" />
          </mxGeometry>
        </mxCell>
        <mxCell id="BuUG9W41u-PBjwoir0zU-89" value="ID_&lt;span style=&quot;text-align: center; text-wrap: nowrap;&quot;&gt;Ticket&lt;/span&gt;(INTIdentity)" style="shape=partialRectangle;connectable=0;fillColor=none;top=0;left=0;bottom=0;right=0;align=left;spacingLeft=6;fontStyle=5;overflow=hidden;whiteSpace=wrap;html=1;" vertex="1" parent="BuUG9W41u-PBjwoir0zU-87">
          <mxGeometry x="30" width="190" height="30" as="geometry">
            <mxRectangle width="190" height="30" as="alternateBounds" />
          </mxGeometry>
        </mxCell>
        <mxCell id="BuUG9W41u-PBjwoir0zU-90" value="" style="shape=tableRow;horizontal=0;startSize=0;swimlaneHead=0;swimlaneBody=0;fillColor=none;collapsible=0;dropTarget=0;points=[[0,0.5],[1,0.5]];portConstraint=eastwest;top=0;left=0;right=0;bottom=1;" vertex="1" parent="BuUG9W41u-PBjwoir0zU-86">
          <mxGeometry y="60" width="220" height="30" as="geometry" />
        </mxCell>
        <mxCell id="BuUG9W41u-PBjwoir0zU-91" value="FK" style="shape=partialRectangle;connectable=0;fillColor=none;top=0;left=0;bottom=0;right=0;fontStyle=1;overflow=hidden;whiteSpace=wrap;html=1;" vertex="1" parent="BuUG9W41u-PBjwoir0zU-90">
          <mxGeometry width="30" height="30" as="geometry">
            <mxRectangle width="30" height="30" as="alternateBounds" />
          </mxGeometry>
        </mxCell>
        <mxCell id="BuUG9W41u-PBjwoir0zU-92" value="ID_Evento(NN,INT)" style="shape=partialRectangle;connectable=0;fillColor=none;top=0;left=0;bottom=0;right=0;align=left;spacingLeft=6;fontStyle=5;overflow=hidden;whiteSpace=wrap;html=1;" vertex="1" parent="BuUG9W41u-PBjwoir0zU-90">
          <mxGeometry x="30" width="190" height="30" as="geometry">
            <mxRectangle width="190" height="30" as="alternateBounds" />
          </mxGeometry>
        </mxCell>
        <mxCell id="BuUG9W41u-PBjwoir0zU-93" value="" style="shape=tableRow;horizontal=0;startSize=0;swimlaneHead=0;swimlaneBody=0;fillColor=none;collapsible=0;dropTarget=0;points=[[0,0.5],[1,0.5]];portConstraint=eastwest;top=0;left=0;right=0;bottom=0;" vertex="1" parent="BuUG9W41u-PBjwoir0zU-86">
          <mxGeometry y="90" width="220" height="30" as="geometry" />
        </mxCell>
        <mxCell id="BuUG9W41u-PBjwoir0zU-94" value="" style="shape=partialRectangle;connectable=0;fillColor=none;top=0;left=0;bottom=0;right=0;editable=1;overflow=hidden;whiteSpace=wrap;html=1;" vertex="1" parent="BuUG9W41u-PBjwoir0zU-93">
          <mxGeometry width="30" height="30" as="geometry">
            <mxRectangle width="30" height="30" as="alternateBounds" />
          </mxGeometry>
        </mxCell>
        <mxCell id="BuUG9W41u-PBjwoir0zU-95" value="&lt;span style=&quot;font-size:11.0pt;line-height:&lt;br/&gt;115%;font-family:&amp;quot;Cambria&amp;quot;,serif;mso-ascii-theme-font:minor-latin;mso-fareast-font-family:&lt;br/&gt;&amp;quot;MS Mincho&amp;quot;;mso-fareast-theme-font:minor-fareast;mso-hansi-theme-font:minor-latin;&lt;br/&gt;mso-bidi-font-family:&amp;quot;Times New Roman&amp;quot;;mso-bidi-theme-font:minor-bidi;&lt;br/&gt;mso-ansi-language:EN-US;mso-fareast-language:EN-US;mso-bidi-language:AR-SA&quot; lang=&quot;EN-US&quot;&gt;precio(NN,NUMBER(7, 2))&lt;/span&gt;" style="shape=partialRectangle;connectable=0;fillColor=none;top=0;left=0;bottom=0;right=0;align=left;spacingLeft=6;overflow=hidden;whiteSpace=wrap;html=1;" vertex="1" parent="BuUG9W41u-PBjwoir0zU-93">
          <mxGeometry x="30" width="190" height="30" as="geometry">
            <mxRectangle width="190" height="30" as="alternateBounds" />
          </mxGeometry>
        </mxCell>
        <mxCell id="BuUG9W41u-PBjwoir0zU-96" value="" style="shape=tableRow;horizontal=0;startSize=0;swimlaneHead=0;swimlaneBody=0;fillColor=none;collapsible=0;dropTarget=0;points=[[0,0.5],[1,0.5]];portConstraint=eastwest;top=0;left=0;right=0;bottom=0;" vertex="1" parent="BuUG9W41u-PBjwoir0zU-86">
          <mxGeometry y="120" width="220" height="30" as="geometry" />
        </mxCell>
        <mxCell id="BuUG9W41u-PBjwoir0zU-97" value="" style="shape=partialRectangle;connectable=0;fillColor=none;top=0;left=0;bottom=0;right=0;editable=1;overflow=hidden;whiteSpace=wrap;html=1;" vertex="1" parent="BuUG9W41u-PBjwoir0zU-96">
          <mxGeometry width="30" height="30" as="geometry">
            <mxRectangle width="30" height="30" as="alternateBounds" />
          </mxGeometry>
        </mxCell>
        <mxCell id="BuUG9W41u-PBjwoir0zU-98" value="codigoTic(NN,NVARCHAR(25))" style="shape=partialRectangle;connectable=0;fillColor=none;top=0;left=0;bottom=0;right=0;align=left;spacingLeft=6;overflow=hidden;whiteSpace=wrap;html=1;" vertex="1" parent="BuUG9W41u-PBjwoir0zU-96">
          <mxGeometry x="30" width="190" height="30" as="geometry">
            <mxRectangle width="190" height="30" as="alternateBounds" />
          </mxGeometry>
        </mxCell>
        <mxCell id="BuUG9W41u-PBjwoir0zU-99" value="Compra" style="shape=table;startSize=30;container=1;collapsible=1;childLayout=tableLayout;fixedRows=1;rowLines=0;fontStyle=1;align=center;resizeLast=1;html=1;" vertex="1" parent="1">
          <mxGeometry x="-1640.08" y="2240" width="240" height="240" as="geometry" />
        </mxCell>
        <mxCell id="BuUG9W41u-PBjwoir0zU-100" value="" style="shape=tableRow;horizontal=0;startSize=0;swimlaneHead=0;swimlaneBody=0;fillColor=none;collapsible=0;dropTarget=0;points=[[0,0.5],[1,0.5]];portConstraint=eastwest;top=0;left=0;right=0;bottom=1;" vertex="1" parent="BuUG9W41u-PBjwoir0zU-99">
          <mxGeometry y="30" width="240" height="30" as="geometry" />
        </mxCell>
        <mxCell id="BuUG9W41u-PBjwoir0zU-101" value="PK" style="shape=partialRectangle;connectable=0;fillColor=none;top=0;left=0;bottom=0;right=0;fontStyle=1;overflow=hidden;whiteSpace=wrap;html=1;" vertex="1" parent="BuUG9W41u-PBjwoir0zU-100">
          <mxGeometry width="30" height="30" as="geometry">
            <mxRectangle width="30" height="30" as="alternateBounds" />
          </mxGeometry>
        </mxCell>
        <mxCell id="BuUG9W41u-PBjwoir0zU-102" value="ID_&lt;span style=&quot;text-align: center; text-wrap: nowrap;&quot;&gt;Compra&lt;/span&gt;(INTIdentity)" style="shape=partialRectangle;connectable=0;fillColor=none;top=0;left=0;bottom=0;right=0;align=left;spacingLeft=6;fontStyle=5;overflow=hidden;whiteSpace=wrap;html=1;" vertex="1" parent="BuUG9W41u-PBjwoir0zU-100">
          <mxGeometry x="30" width="210" height="30" as="geometry">
            <mxRectangle width="210" height="30" as="alternateBounds" />
          </mxGeometry>
        </mxCell>
        <mxCell id="BuUG9W41u-PBjwoir0zU-103" value="" style="shape=tableRow;horizontal=0;startSize=0;swimlaneHead=0;swimlaneBody=0;fillColor=none;collapsible=0;dropTarget=0;points=[[0,0.5],[1,0.5]];portConstraint=eastwest;top=0;left=0;right=0;bottom=1;" vertex="1" parent="BuUG9W41u-PBjwoir0zU-99">
          <mxGeometry y="60" width="240" height="30" as="geometry" />
        </mxCell>
        <mxCell id="BuUG9W41u-PBjwoir0zU-104" value="FK" style="shape=partialRectangle;connectable=0;fillColor=none;top=0;left=0;bottom=0;right=0;fontStyle=1;overflow=hidden;whiteSpace=wrap;html=1;" vertex="1" parent="BuUG9W41u-PBjwoir0zU-103">
          <mxGeometry width="30" height="30" as="geometry">
            <mxRectangle width="30" height="30" as="alternateBounds" />
          </mxGeometry>
        </mxCell>
        <mxCell id="BuUG9W41u-PBjwoir0zU-105" value="&lt;div style=&quot;text-align: center;&quot;&gt;&lt;span style=&quot;background-color: initial;&quot;&gt;ID_&lt;/span&gt;&lt;span style=&quot;background-color: initial; text-wrap: nowrap; text-align: center;&quot;&gt;Usuario&lt;/span&gt;&lt;span style=&quot;background-color: initial; text-wrap: nowrap;&quot;&gt;(NN,INT)&lt;/span&gt;&lt;/div&gt;" style="shape=partialRectangle;connectable=0;fillColor=none;top=0;left=0;bottom=0;right=0;align=left;spacingLeft=6;fontStyle=5;overflow=hidden;whiteSpace=wrap;html=1;" vertex="1" parent="BuUG9W41u-PBjwoir0zU-103">
          <mxGeometry x="30" width="210" height="30" as="geometry">
            <mxRectangle width="210" height="30" as="alternateBounds" />
          </mxGeometry>
        </mxCell>
        <mxCell id="BuUG9W41u-PBjwoir0zU-106" value="" style="shape=tableRow;horizontal=0;startSize=0;swimlaneHead=0;swimlaneBody=0;fillColor=none;collapsible=0;dropTarget=0;points=[[0,0.5],[1,0.5]];portConstraint=eastwest;top=0;left=0;right=0;bottom=1;" vertex="1" parent="BuUG9W41u-PBjwoir0zU-99">
          <mxGeometry y="90" width="240" height="30" as="geometry" />
        </mxCell>
        <mxCell id="BuUG9W41u-PBjwoir0zU-107" value="FK" style="shape=partialRectangle;connectable=0;fillColor=none;top=0;left=0;bottom=0;right=0;fontStyle=1;overflow=hidden;whiteSpace=wrap;html=1;" vertex="1" parent="BuUG9W41u-PBjwoir0zU-106">
          <mxGeometry width="30" height="30" as="geometry">
            <mxRectangle width="30" height="30" as="alternateBounds" />
          </mxGeometry>
        </mxCell>
        <mxCell id="BuUG9W41u-PBjwoir0zU-108" value="&lt;div style=&quot;text-align: center;&quot;&gt;&lt;span style=&quot;background-color: initial;&quot;&gt;ID_&lt;/span&gt;&lt;span style=&quot;background-color: initial; text-wrap: nowrap; text-align: center;&quot;&gt;Ticket&lt;/span&gt;&lt;span style=&quot;background-color: initial; text-wrap: nowrap;&quot;&gt;(NN,INT)&lt;/span&gt;&lt;/div&gt;" style="shape=partialRectangle;connectable=0;fillColor=none;top=0;left=0;bottom=0;right=0;align=left;spacingLeft=6;fontStyle=5;overflow=hidden;whiteSpace=wrap;html=1;" vertex="1" parent="BuUG9W41u-PBjwoir0zU-106">
          <mxGeometry x="30" width="210" height="30" as="geometry">
            <mxRectangle width="210" height="30" as="alternateBounds" />
          </mxGeometry>
        </mxCell>
        <mxCell id="BuUG9W41u-PBjwoir0zU-109" value="" style="shape=tableRow;horizontal=0;startSize=0;swimlaneHead=0;swimlaneBody=0;fillColor=none;collapsible=0;dropTarget=0;points=[[0,0.5],[1,0.5]];portConstraint=eastwest;top=0;left=0;right=0;bottom=1;" vertex="1" parent="BuUG9W41u-PBjwoir0zU-99">
          <mxGeometry y="120" width="240" height="30" as="geometry" />
        </mxCell>
        <mxCell id="BuUG9W41u-PBjwoir0zU-110" value="FK" style="shape=partialRectangle;connectable=0;fillColor=none;top=0;left=0;bottom=0;right=0;fontStyle=1;overflow=hidden;whiteSpace=wrap;html=1;" vertex="1" parent="BuUG9W41u-PBjwoir0zU-109">
          <mxGeometry width="30" height="30" as="geometry">
            <mxRectangle width="30" height="30" as="alternateBounds" />
          </mxGeometry>
        </mxCell>
        <mxCell id="BuUG9W41u-PBjwoir0zU-111" value="ID_Pago(NN,INT)" style="shape=partialRectangle;connectable=0;fillColor=none;top=0;left=0;bottom=0;right=0;align=left;spacingLeft=6;fontStyle=5;overflow=hidden;whiteSpace=wrap;html=1;" vertex="1" parent="BuUG9W41u-PBjwoir0zU-109">
          <mxGeometry x="30" width="210" height="30" as="geometry">
            <mxRectangle width="210" height="30" as="alternateBounds" />
          </mxGeometry>
        </mxCell>
        <mxCell id="BuUG9W41u-PBjwoir0zU-112" value="" style="shape=tableRow;horizontal=0;startSize=0;swimlaneHead=0;swimlaneBody=0;fillColor=none;collapsible=0;dropTarget=0;points=[[0,0.5],[1,0.5]];portConstraint=eastwest;top=0;left=0;right=0;bottom=0;" vertex="1" parent="BuUG9W41u-PBjwoir0zU-99">
          <mxGeometry y="150" width="240" height="30" as="geometry" />
        </mxCell>
        <mxCell id="BuUG9W41u-PBjwoir0zU-113" value="" style="shape=partialRectangle;connectable=0;fillColor=none;top=0;left=0;bottom=0;right=0;editable=1;overflow=hidden;whiteSpace=wrap;html=1;" vertex="1" parent="BuUG9W41u-PBjwoir0zU-112">
          <mxGeometry width="30" height="30" as="geometry">
            <mxRectangle width="30" height="30" as="alternateBounds" />
          </mxGeometry>
        </mxCell>
        <mxCell id="BuUG9W41u-PBjwoir0zU-114" value="&lt;span style=&quot;font-size:11.0pt;line-height:&lt;br/&gt;115%;font-family:&amp;quot;Cambria&amp;quot;,serif;mso-ascii-theme-font:minor-latin;mso-fareast-font-family:&lt;br/&gt;&amp;quot;MS Mincho&amp;quot;;mso-fareast-theme-font:minor-fareast;mso-hansi-theme-font:minor-latin;&lt;br/&gt;mso-bidi-font-family:&amp;quot;Times New Roman&amp;quot;;mso-bidi-theme-font:minor-bidi;&lt;br/&gt;mso-ansi-language:EN-US;mso-fareast-language:EN-US;mso-bidi-language:AR-SA&quot; lang=&quot;EN-US&quot;&gt;iva(NN,NUMBER(1, 3))&lt;/span&gt;" style="shape=partialRectangle;connectable=0;fillColor=none;top=0;left=0;bottom=0;right=0;align=left;spacingLeft=6;overflow=hidden;whiteSpace=wrap;html=1;" vertex="1" parent="BuUG9W41u-PBjwoir0zU-112">
          <mxGeometry x="30" width="210" height="30" as="geometry">
            <mxRectangle width="210" height="30" as="alternateBounds" />
          </mxGeometry>
        </mxCell>
        <mxCell id="BuUG9W41u-PBjwoir0zU-115" value="" style="shape=tableRow;horizontal=0;startSize=0;swimlaneHead=0;swimlaneBody=0;fillColor=none;collapsible=0;dropTarget=0;points=[[0,0.5],[1,0.5]];portConstraint=eastwest;top=0;left=0;right=0;bottom=0;" vertex="1" parent="BuUG9W41u-PBjwoir0zU-99">
          <mxGeometry y="180" width="240" height="30" as="geometry" />
        </mxCell>
        <mxCell id="BuUG9W41u-PBjwoir0zU-116" value="" style="shape=partialRectangle;connectable=0;fillColor=none;top=0;left=0;bottom=0;right=0;editable=1;overflow=hidden;whiteSpace=wrap;html=1;" vertex="1" parent="BuUG9W41u-PBjwoir0zU-115">
          <mxGeometry width="30" height="30" as="geometry">
            <mxRectangle width="30" height="30" as="alternateBounds" />
          </mxGeometry>
        </mxCell>
        <mxCell id="BuUG9W41u-PBjwoir0zU-117" value="codigoCompra(NN,NVARCHAR(25))" style="shape=partialRectangle;connectable=0;fillColor=none;top=0;left=0;bottom=0;right=0;align=left;spacingLeft=6;overflow=hidden;whiteSpace=wrap;html=1;" vertex="1" parent="BuUG9W41u-PBjwoir0zU-115">
          <mxGeometry x="30" width="210" height="30" as="geometry">
            <mxRectangle width="210" height="30" as="alternateBounds" />
          </mxGeometry>
        </mxCell>
        <mxCell id="BuUG9W41u-PBjwoir0zU-118" value="" style="shape=tableRow;horizontal=0;startSize=0;swimlaneHead=0;swimlaneBody=0;fillColor=none;collapsible=0;dropTarget=0;points=[[0,0.5],[1,0.5]];portConstraint=eastwest;top=0;left=0;right=0;bottom=0;" vertex="1" parent="BuUG9W41u-PBjwoir0zU-99">
          <mxGeometry y="210" width="240" height="30" as="geometry" />
        </mxCell>
        <mxCell id="BuUG9W41u-PBjwoir0zU-119" value="" style="shape=partialRectangle;connectable=0;fillColor=none;top=0;left=0;bottom=0;right=0;editable=1;overflow=hidden;whiteSpace=wrap;html=1;" vertex="1" parent="BuUG9W41u-PBjwoir0zU-118">
          <mxGeometry width="30" height="30" as="geometry">
            <mxRectangle width="30" height="30" as="alternateBounds" />
          </mxGeometry>
        </mxCell>
        <mxCell id="BuUG9W41u-PBjwoir0zU-120" value="fechaCompra(NN,DATE)" style="shape=partialRectangle;connectable=0;fillColor=none;top=0;left=0;bottom=0;right=0;align=left;spacingLeft=6;overflow=hidden;whiteSpace=wrap;html=1;" vertex="1" parent="BuUG9W41u-PBjwoir0zU-118">
          <mxGeometry x="30" width="210" height="30" as="geometry">
            <mxRectangle width="210" height="30" as="alternateBounds" />
          </mxGeometry>
        </mxCell>
        <mxCell id="BuUG9W41u-PBjwoir0zU-121" value="Pago" style="shape=table;startSize=30;container=1;collapsible=1;childLayout=tableLayout;fixedRows=1;rowLines=0;fontStyle=1;align=center;resizeLast=1;html=1;" vertex="1" parent="1">
          <mxGeometry x="-1296.08" y="2472" width="256" height="90" as="geometry" />
        </mxCell>
        <mxCell id="BuUG9W41u-PBjwoir0zU-122" value="" style="shape=tableRow;horizontal=0;startSize=0;swimlaneHead=0;swimlaneBody=0;fillColor=none;collapsible=0;dropTarget=0;points=[[0,0.5],[1,0.5]];portConstraint=eastwest;top=0;left=0;right=0;bottom=1;" vertex="1" parent="BuUG9W41u-PBjwoir0zU-121">
          <mxGeometry y="30" width="256" height="30" as="geometry" />
        </mxCell>
        <mxCell id="BuUG9W41u-PBjwoir0zU-123" value="PK" style="shape=partialRectangle;connectable=0;fillColor=none;top=0;left=0;bottom=0;right=0;fontStyle=1;overflow=hidden;whiteSpace=wrap;html=1;" vertex="1" parent="BuUG9W41u-PBjwoir0zU-122">
          <mxGeometry width="30" height="30" as="geometry">
            <mxRectangle width="30" height="30" as="alternateBounds" />
          </mxGeometry>
        </mxCell>
        <mxCell id="BuUG9W41u-PBjwoir0zU-124" value="ID_&lt;span style=&quot;text-align: center; text-wrap: nowrap;&quot;&gt;Pago&lt;/span&gt;(INTIdentity)" style="shape=partialRectangle;connectable=0;fillColor=none;top=0;left=0;bottom=0;right=0;align=left;spacingLeft=6;fontStyle=5;overflow=hidden;whiteSpace=wrap;html=1;" vertex="1" parent="BuUG9W41u-PBjwoir0zU-122">
          <mxGeometry x="30" width="226" height="30" as="geometry">
            <mxRectangle width="226" height="30" as="alternateBounds" />
          </mxGeometry>
        </mxCell>
        <mxCell id="BuUG9W41u-PBjwoir0zU-125" value="" style="shape=tableRow;horizontal=0;startSize=0;swimlaneHead=0;swimlaneBody=0;fillColor=none;collapsible=0;dropTarget=0;points=[[0,0.5],[1,0.5]];portConstraint=eastwest;top=0;left=0;right=0;bottom=0;" vertex="1" parent="BuUG9W41u-PBjwoir0zU-121">
          <mxGeometry y="60" width="256" height="30" as="geometry" />
        </mxCell>
        <mxCell id="BuUG9W41u-PBjwoir0zU-126" value="" style="shape=partialRectangle;connectable=0;fillColor=none;top=0;left=0;bottom=0;right=0;editable=1;overflow=hidden;whiteSpace=wrap;html=1;" vertex="1" parent="BuUG9W41u-PBjwoir0zU-125">
          <mxGeometry width="30" height="30" as="geometry">
            <mxRectangle width="30" height="30" as="alternateBounds" />
          </mxGeometry>
        </mxCell>
        <mxCell id="BuUG9W41u-PBjwoir0zU-127" value="&lt;span style=&quot;font-size:11.0pt;line-height:&lt;br/&gt;115%;font-family:&amp;quot;Cambria&amp;quot;,serif;mso-ascii-theme-font:minor-latin;mso-fareast-font-family:&lt;br/&gt;&amp;quot;MS Mincho&amp;quot;;mso-fareast-theme-font:minor-fareast;mso-hansi-theme-font:minor-latin;&lt;br/&gt;mso-bidi-font-family:&amp;quot;Times New Roman&amp;quot;;mso-bidi-theme-font:minor-bidi;&lt;br/&gt;mso-ansi-language:EN-US;mso-fareast-language:EN-US;mso-bidi-language:AR-SA&quot; lang=&quot;EN-US&quot;&gt;metodoPago(NN, NVARCHAR(25))&lt;/span&gt;" style="shape=partialRectangle;connectable=0;fillColor=none;top=0;left=0;bottom=0;right=0;align=left;spacingLeft=6;overflow=hidden;whiteSpace=wrap;html=1;" vertex="1" parent="BuUG9W41u-PBjwoir0zU-125">
          <mxGeometry x="30" width="226" height="30" as="geometry">
            <mxRectangle width="226" height="30" as="alternateBounds" />
          </mxGeometry>
        </mxCell>
        <mxCell id="BuUG9W41u-PBjwoir0zU-128" value="" style="edgeStyle=orthogonalEdgeStyle;fontSize=12;html=1;endArrow=ERoneToMany;rounded=0;startSize=8;endSize=8;entryX=1;entryY=0.5;entryDx=0;entryDy=0;" edge="1" parent="1" source="BuUG9W41u-PBjwoir0zU-22" target="BuUG9W41u-PBjwoir0zU-90">
          <mxGeometry width="100" height="100" relative="1" as="geometry">
            <mxPoint x="-1420.08" y="2722" as="sourcePoint" />
            <mxPoint x="-880.0799999999999" y="2577" as="targetPoint" />
          </mxGeometry>
        </mxCell>
        <mxCell id="BuUG9W41u-PBjwoir0zU-129" value="" style="edgeStyle=orthogonalEdgeStyle;fontSize=12;html=1;endArrow=ERoneToMany;rounded=0;startSize=8;endSize=8;entryX=0;entryY=0.5;entryDx=0;entryDy=0;exitX=0;exitY=0.5;exitDx=0;exitDy=0;" edge="1" parent="1" source="BuUG9W41u-PBjwoir0zU-106" target="BuUG9W41u-PBjwoir0zU-87">
          <mxGeometry width="100" height="100" relative="1" as="geometry">
            <mxPoint x="-1320.08" y="2663" as="sourcePoint" />
            <mxPoint x="-1470.08" y="2677" as="targetPoint" />
            <Array as="points">
              <mxPoint x="-1680.08" y="2345" />
              <mxPoint x="-1680.08" y="2637" />
            </Array>
          </mxGeometry>
        </mxCell>
        <mxCell id="BuUG9W41u-PBjwoir0zU-130" value="" style="edgeStyle=orthogonalEdgeStyle;fontSize=12;html=1;endArrow=ERoneToMany;rounded=0;startSize=8;endSize=8;exitX=0;exitY=0.5;exitDx=0;exitDy=0;entryX=1;entryY=0.5;entryDx=0;entryDy=0;" edge="1" parent="1" source="BuUG9W41u-PBjwoir0zU-122" target="BuUG9W41u-PBjwoir0zU-109">
          <mxGeometry width="100" height="100" relative="1" as="geometry">
            <mxPoint x="-1320.08" y="2663" as="sourcePoint" />
            <mxPoint x="-1420.08" y="2542" as="targetPoint" />
          </mxGeometry>
        </mxCell>
        <mxCell id="BuUG9W41u-PBjwoir0zU-131" value="" style="edgeStyle=orthogonalEdgeStyle;fontSize=12;html=1;endArrow=ERoneToMany;rounded=0;startSize=8;endSize=8;exitX=0;exitY=0.5;exitDx=0;exitDy=0;entryX=1;entryY=0.5;entryDx=0;entryDy=0;" edge="1" parent="1" source="BuUG9W41u-PBjwoir0zU-3" target="BuUG9W41u-PBjwoir0zU-103">
          <mxGeometry width="100" height="100" relative="1" as="geometry">
            <mxPoint x="-1286.08" y="2527" as="sourcePoint" />
            <mxPoint x="-1422.08" y="2385" as="targetPoint" />
          </mxGeometry>
        </mxCell>
      </root>
    </mxGraphModel>
  </diagram>
</mxfile>
